<?xml version="1.0" encoding="UTF-8"?>
<svg xmlns="http://www.w3.org/2000/svg" viewBox="878 239 1060 1058" width="512" height="512">
  <path fill="rgb(50,56,68)" d="M 1082.23 248.407 C 1083.98 248.318 1085.72 248.245 1087.46 248.188 C 1132.46 246.8 1184.66 248.033 1230.13 248.029 L 1504.62 247.975 L 1655.55 248.117 C 1736.26 248.248 1801.1 241.416 1864.26 300.948 C 1903.91 339.016 1926.87 391.245 1928.09 446.199 C 1929.64 505.255 1929.53 568.552 1929.66 627.62 L 1929.66 909.977 C 1929.61 973.391 1930.74 1039.89 1928.95 1103.12 C 1925.88 1211.17 1844.56 1284.99 1737.07 1287.3 L 1267.45 1287.94 L 1135.6 1288.21 C 1108.88 1288.31 1069.3 1289.77 1043.59 1285.49 C 1011.49 1280.08 981.386 1266.32 956.291 1245.59 C 915.078 1211.17 893.576 1166.39 888.321 1113.04 C 886.721 1096.79 887.301 1075.64 887.289 1059.04 L 887.246 977.531 L 886.642 731.171 L 886.677 540.674 C 886.695 501.137 884.976 453.668 890.882 415.264 C 896.312 379.957 915.95 342.162 939.319 315.263 C 978.216 270.49 1024.64 252.984 1082.23 248.407 z"/>
  <path fill="rgb(204,231,219)" d="M 1047.46 466.899 C 1068.13 479.587 1091.52 491.712 1112.99 503.297 C 1133.95 514.615 1156.21 527.058 1177.58 537.294 L 1046.45 609.117 C 1052.63 616.513 1061.89 635.534 1066.48 644.643 C 1070.84 642.571 1075.38 640.587 1079.4 637.935 C 1128.72 611.415 1177.73 584.317 1226.42 556.646 C 1226.39 543.879 1226.29 531.112 1226.11 518.345 C 1174.98 488.857 1122.08 461.824 1070.33 433.415 C 1068.8 432.574 1066.68 432.356 1064.98 432.463 C 1058.94 443.84 1053.1 455.321 1047.46 466.899 z M 1447.73 985.863 C 1456.24 985.751 1464.74 985.575 1473.25 985.335 C 1476.68 984.742 1477.13 985.09 1479.81 982.309 C 1488.65 973.131 1497.41 963.605 1506.18 954.377 L 1560.28 897.785 L 1617.4 837.461 C 1627.21 827.048 1641.94 812.233 1650.58 801.249 C 1645.68 795.852 1631.01 778.952 1624.57 778.799 C 1604.86 795.231 1588.23 814.316 1570.57 832.883 L 1500.34 906.74 C 1483.85 924.411 1464.93 941.258 1450.3 960.613 C 1446.44 965.72 1447.42 979.392 1447.73 985.863 z M 1651.11 684.974 C 1675.02 708.55 1712.57 748.389 1738.65 768.313 C 1745.11 768.13 1759.73 751.249 1764.82 746.408 C 1781.88 730.186 1778.82 707.763 1762.2 692.388 C 1746.1 677.49 1722.7 646.701 1698.6 647.739 C 1696.94 647.817 1695.28 647.939 1693.63 648.105 C 1670.21 657.359 1667.08 669.652 1651.11 684.974 z M 1481.77 1036.48 C 1470.25 1021.51 1471.55 1020.27 1471.7 1001.72 C 1459.71 1001.66 1444.59 1001.97 1432.91 1000.87 C 1432.54 988.435 1432.32 975.993 1432.27 963.549 C 1424.69 963.463 1420.36 963.427 1412.82 962.118 C 1407.08 961.12 1401.98 957.738 1397.91 958.582 C 1389.39 980.279 1382.7 1004.96 1373.65 1026.06 C 1395.49 1036.59 1402.75 1042.49 1415.36 1064.1 C 1427.02 1059.9 1437.27 1055.61 1448.69 1050.74 C 1459.69 1046.12 1470.98 1041.52 1481.77 1036.48 z M 1426.93 949.685 L 1438.57 949.702 C 1478.29 909.983 1516.58 867.631 1556.42 827.775 C 1576.18 808.006 1594.37 786.462 1614.44 766.417 C 1609.99 761.584 1598.82 748.783 1593.69 746.465 C 1583.38 753.276 1410.84 933.294 1405.73 943.019 C 1409.38 948.862 1420.46 948.991 1426.93 949.685 z M 1606.58 729.975 C 1616.51 741.328 1688.87 813.656 1698.04 814.903 C 1708.59 805.147 1717.72 794.467 1728.37 784.705 C 1716.02 772.378 1646.65 703.807 1636.34 700.303 C 1628.92 709.249 1615.31 721.592 1606.58 729.975 z M 1661.04 812.479 C 1639.62 832.37 1619.03 855.987 1598.67 877.271 C 1560.4 916.71 1522.66 956.664 1485.47 997.121 L 1485.3 1017.43 C 1487.91 1020.61 1489.44 1023.16 1493.15 1024.78 C 1497.74 1024.1 1498.69 1022.43 1502.23 1018.8 C 1538.61 985.798 1575.76 944.019 1610.14 908.076 L 1661.45 854.236 C 1667.37 848.018 1678.47 837.457 1683.38 831.59 C 1679.9 828.176 1664.95 813.61 1661.04 812.479 z M 1375.83 1079 C 1380.94 1077.1 1394.76 1072.61 1397.94 1069.31 C 1396.72 1060.52 1376.96 1045.89 1367.52 1043.63 C 1363.02 1058.61 1358.34 1073.52 1353.46 1088.38 C 1361.23 1085.39 1368.24 1082.35 1375.83 1079 z M 1241.2 647.193 C 1241.06 659.833 1241.16 672.475 1241.5 685.111 C 1296.79 685.124 1354.09 684.33 1409.2 685.238 C 1409.4 672.456 1409.45 659.671 1409.36 646.888 L 1299.95 646.813 C 1281.28 646.835 1259.68 646.363 1241.2 647.193 z"/>
</svg>
