<?xml version="1.0" encoding="UTF-8" standalone="no"?>
<svg
   width="1024"
   height="1024"
   viewBox="0 0 1024 1024"
   version="1.1"
   id="svg7"
   sodipodi:docname="cognote.svg"
   inkscape:version="1.4.3 (0d15f75, 2025-12-25)"
   xmlns:inkscape="http://www.inkscape.org/namespaces/inkscape"
   xmlns:sodipodi="http://sodipodi.sourceforge.net/DTD/sodipodi-0.dtd"
   xmlns:xlink="http://www.w3.org/1999/xlink"
   xmlns="http://www.w3.org/2000/svg"
   xmlns:svg="http://www.w3.org/2000/svg">
  <defs
     id="defs7">
    <color-profile
       name="Agfa-:-Swop-Standard"
       xlink:href="../../../windows/system32/spool/drivers/color/RSWOP.icm"
       id="color-profile1" />
  </defs>
  <sodipodi:namedview
     id="namedview7"
     pagecolor="#ffffff"
     bordercolor="#000000"
     borderopacity="0.25"
     inkscape:showpageshadow="2"
     inkscape:pageopacity="0.0"
     inkscape:pagecheckerboard="0"
     inkscape:deskcolor="#d1d1d1"
     showgrid="false"
     inkscape:zoom="0.39404297"
     inkscape:cx="-400.9715"
     inkscape:cy="483.44981"
     inkscape:window-width="1920"
     inkscape:window-height="1009"
     inkscape:window-x="1912"
     inkscape:window-y="-8"
     inkscape:window-maximized="1"
     inkscape:current-layer="svg7" />
  <path
     id="path2"
     style="stroke-width:1.84066;fill:#0aab97;fill-opacity:1"
     d="m 421.93793,513.90732 c -17.88627,1.24784 -25.45336,4.9007 -40.54297,15.1621 -37.61567,-15.69166 -56.80377,0.16194 -76.82617,32.79883 -37.8909,5.59244 -56.77965,16.45613 -63.27148,59.72266 -28.53137,25.11543 -32.33069,36.31524 -27.72461,76.09961 -9.92597,16.21828 -15.9578,28.2339 -11.4707,48.13086 9.65607,42.82006 50.35659,53.52967 85.25195,45.28125 2.30303,-0.55142 4.59718,-1.1521 6.87891,-1.80274 -6.60902,-44.46669 15.66957,-80.62285 58.15234,-88.38281 21.03452,-3.84469 23.82381,-1.2961 37.83203,-19.77539 -13.38319,-14.72428 -21.15148,-30.5169 -20.84961,-51.5625 0.13495,-8.4335 1.74061,-16.76438 4.73438,-24.5625 4.73214,-12.58157 18.85293,-30.91881 9.93554,-40.78906 -5.17251,-5.72219 -11.44756,-3.66367 -12.66211,-10.67188 7.69395,-11.99198 19.82041,3.2979 24.53125,10.53125 5.40157,-3.97252 26.24052,-17.02128 27.66993,-2.88086 -3.81235,6.07518 -12.10194,4.2729 -14.88086,7.14258 -29.33042,30.29764 -40.10194,68.80791 -13.48829,104.15039 25.10258,-32.91546 47.06481,-44.56987 86.33008,-34.71679 4.49953,-15.51421 6.91649,-21.33863 17.92383,-32.93946 -5.15653,-11.37569 -7.66561,-19.38256 -11.74609,-31.10742 -4.39832,-2.35069 -10.74076,-4.91803 -7.63867,-11.44922 4.60607,-1.72105 6.05676,0.29043 10.16211,2.91016 3.61525,-9.58595 4.19356,-12.98515 13.55664,-16.98438 3.84964,0.10875 3.1071,-0.53605 5.70312,1.49219 0.51495,10.64491 -20.86755,16.45032 -0.99609,49.88477 7.15415,-1.88705 13.22615,-3.70175 20.6289,-2.23829 l 1.89649,1.52149 c -0.16159,3.04713 -1.39156,3.75778 -3.96094,6.31836 -27.92055,5.93016 -32.2183,18.47687 -37.37305,46.50586 -21.7732,-6.22018 -40.67338,-9.95551 -61.85351,2.58789 -18.6498,11.15245 -26.33384,33.38088 -41.98633,47.76172 -10.85818,10.05152 -25.27683,8.03088 -38.11133,11.23828 -37.00485,9.25014 -55.393,57.17099 -34.48633,91.5957 21.53881,35.4665 60.44083,33.69542 90.80469,13.28711 34.46564,-23.16542 66.60025,-63.70986 110.5,-56.80469 21.53704,4.03358 17.86136,29.87679 49.93164,26.06836 8.303,-0.93685 16.32295,-3.77351 23.52149,-8.32226 23.45653,-15.0601 31.29876,-41.38439 22.62109,-68.97071 15.06652,-33.98015 15.0217,-67.51463 -18.53125,-88.29882 -5.37849,4.23201 -12.71288,10.42756 -19.33789,11.66015 -3.37376,-0.97119 -2.08299,-0.003 -4.14453,-2.75586 -0.72803,-9.76912 17.83442,-12.55186 16.17773,-23.42383 -5.90586,-38.79029 -31.37498,-55.32306 -64.61719,-56.76171 -18.44916,-30.70215 -35.6199,-36.0602 -67.46289,-27.78125 -11.53827,-5.39592 -18.04619,-8.60585 -30.78125,-8.86914 z m 19.93555,30.78906 c 0.92335,0.19462 2.73397,0.64648 3.60938,0.89453 4.02898,2.30681 0.74147,18.13833 0.83203,22.75195 0.26635,13.69967 14.58765,18.80048 6.02539,30.27539 -16.93273,-11.69433 -19.46054,-35.67727 -10.4668,-53.92187 z m -95.25391,30.37109 c 19.77025,2.02251 22.46078,40.95882 5.84766,49.79492 -4.12309,2.79717 -12.68007,5.7118 -15.49805,9.96289 -4.3415,6.54646 4.64751,21.43547 -4.2539,23.7461 -8.84636,-2.59683 -6.97534,-17.2917 -6.61133,-25.17188 -4.66289,-0.31482 -9.33941,-0.21638 -13.98633,0.29688 -13.13281,1.51307 -20.27355,8.63886 -28.13086,18.89453 1.9337,21.64853 -0.10951,32.5854 -17.26953,45.70312 1.71529,9.06125 3.06154,19.52445 4.36133,28.74024 2.88545,2.16943 6.55764,4.05257 7.81836,7.35156 -0.69073,2.86395 -0.53239,2.73263 -2.53711,4.72461 -2.41668,0.74032 -4.64193,0.0878 -6.80469,-0.82617 -3.66852,-1.3051 -8.84782,9.71973 -12.26953,10.58789 -15.79453,4.00877 -0.6784,-13.63069 1.71875,-16.76367 1.28735,-8.04236 2.21765,-18.57366 -0.54883,-26.31836 -2.13968,-5.99313 -12.80967,-2.27237 -19.21094,-4.8711 -2.02426,-2.40985 -1.54651,-1.03647 -1.54296,-4.23242 4.80495,-9.0517 54.01214,-3.60949 32.94921,-48.07617 7.69218,-7.03683 14.60575,-12.84126 19.31836,-22.81836 5.82773,-12.33543 -18.05227,-22.84776 -13.39648,-34.17383 0.69073,-0.32628 1.41704,-0.74128 2.16992,-0.70312 14.52316,0.74986 19.11819,23.10801 20.125,34.45508 25.95843,-4.40565 72.07274,3.98866 46.90625,-43.34961 -1.4152,-2.66362 -0.13269,-4.48796 0.8457,-6.95313 z m 201.63086,66.71094 c 6.05147,1.0456 10.30654,4.16371 9.13282,11.50391 -2.43088,15.21846 -12.80128,28.35577 -23.39844,37.625 17.65543,7.53863 30.94923,18.1455 40.58398,35.95507 2.18762,4.04121 4.60893,13.76496 -0.24218,16.29883 -5.70344,-1.29937 -11.16412,-15.27422 -16.65625,-21.83594 -4.84756,-5.83858 -10.67969,-10.63761 -17.1875,-14.14648 -20.84275,-11.23259 -41.43334,-6.95011 -62.61524,0.61523 -10.638,20.3339 -19.6087,28.37447 -41.99805,22.81446 -6.45632,17.00057 -14.29061,23.82592 -28.2207,33.15429 0.62681,5.34821 2.88297,18.08767 -3.21289,20.14454 -5.72652,-3.87712 -6.41563,-13.70862 -6.88086,-20.30469 -10.70193,1.8279 -17.07821,3.02408 -25.42383,11.15039 -3.21395,3.12727 -7.54788,7.36004 -11.83789,5.32226 -2.69368,-6.55599 0.80004,-8.96978 4.66211,-13.80664 10.65576,-13.3505 25.94369,-8.8048 39.49024,-14.51172 15.48024,-6.52165 21.36455,-22.18598 27.39648,-37.32812 22.67346,13.24747 26.99405,5.76989 38.50391,-15.86719 22.73206,-5.52185 23.70486,-10.18352 50.59375,-10.59375 1.03343,-0.58767 2.05126,-1.20873 3.05273,-1.85937 16.17986,-10.643 20.35846,-26.02824 24.25781,-44.33008 z" />
  <path
     fill="#07aa96"
     d="m 584.47194,81.480081 c 2.89788,3.236027 11.37313,15.613427 14.58176,19.784389 10.48885,13.47643 22.5172,25.47986 35.80094,35.72217 59.07458,46.17056 140.38758,56.35946 170.66976,136.30409 9.42701,24.88837 10.39474,43.11771 10.35745,69.28064 -31.92467,-85.45884 -132.95465,-68.95818 -201.26268,-62.04538 0.23971,22.5682 0.34448,45.1364 0.31252,67.70652 0.36756,91.54356 -1.72772,188.38573 0.55045,279.4332 -5.90053,-6.23545 -11.61639,-11.56077 -18.69774,-16.16103 -1.33175,-25.64014 -11.47967,-29.57641 -11.9591,-49.7901 -0.43149,-18.23888 -0.24149,-39.04787 -0.24682,-57.55006 l 0.0142,-107.22759 z"
     id="path6"
     style="stroke-width:1.84066" />
  <path
     fill="#07aa96"
     d="m 501.43584,776.84855 c 26.56749,-3.74165 34.52779,16.38045 24.90014,40.59529 9.6827,19.16236 29.04454,47.40887 40.7657,67.16464 -7.87152,2.70177 -17.14404,5.18793 -25.19667,7.57107 -4.8742,-5.45316 -10.50306,-12.86396 -15.11624,-18.65674 -9.04878,-10.94256 -33.10903,-41.57793 -44.12703,-46.37854 -9.00085,-3.921 -33.35586,-11.93283 -43.44163,-15.47032 21.68086,-18.25605 32.0756,-31.50733 62.21573,-34.8254 z"
     id="path7"
     style="stroke-width:1.84066" />
</svg>
